<svg width="42" height="42" viewBox="0 0 42 42" fill="none" xmlns="http://www.w3.org/2000/svg">
<path fill-rule="evenodd" clip-rule="evenodd" d="M13.5777 3.5H28.4223C29.831 3.49998 30.9936 3.49996 31.9407 3.57734C32.9244 3.65771 33.8286 3.8302 34.6779 4.26296C35.9951 4.93407 37.0659 6.00493 37.737 7.32207C38.1698 8.1714 38.3423 9.07564 38.4227 10.0593C38.5 11.0064 38.5 12.169 38.5 13.5777V23.685C38.5 24.8571 38.5 25.8246 38.446 26.6167C38.39 27.4379 38.27 28.1976 37.9672 28.9288C37.2567 30.644 35.894 32.0067 34.1788 32.7172C33.4476 33.02 32.6879 33.14 31.8667 33.196C31.0746 33.25 30.1071 33.25 28.935 33.25H28.875C27.936 33.25 27.7496 33.261 27.5979 33.2968C27.3335 33.3592 27.0873 33.4824 26.8787 33.6564C26.759 33.7563 26.6384 33.8988 26.075 34.65L23.4903 38.0962C23.327 38.3142 23.1423 38.5606 22.9646 38.7582C22.7685 38.9761 22.4428 39.2971 21.9515 39.4882C21.3395 39.7262 20.6605 39.7262 20.0485 39.4882C19.5572 39.2971 19.2315 38.9761 19.0355 38.7582C18.8577 38.5606 18.673 38.3142 18.5097 38.0962L15.925 34.65C15.3616 33.8988 15.241 33.7563 15.1213 33.6564C14.9127 33.4824 14.6665 33.3592 14.4021 33.2968C14.2504 33.261 14.064 33.25 13.125 33.25H13.065C11.8929 33.25 10.9254 33.25 10.1333 33.196C9.31206 33.14 8.55239 33.02 7.82122 32.7172C6.10602 32.0067 4.7433 30.644 4.03284 28.9288C3.72998 28.1976 3.61005 27.4379 3.55401 26.6167C3.49997 25.8246 3.49999 24.8571 3.5 23.685L3.5 13.5777C3.49998 12.169 3.49996 11.0064 3.57734 10.0593C3.65771 9.07564 3.8302 8.1714 4.26296 7.32207C4.93407 6.00493 6.00493 4.93407 7.32207 4.26296C8.17141 3.8302 9.07564 3.65771 10.0593 3.57734C11.0064 3.49996 12.169 3.49998 13.5777 3.5ZM10.3443 7.06572C9.57709 7.1284 9.18473 7.24202 8.91104 7.38148C8.25247 7.71704 7.71704 8.25247 7.38148 8.91103C7.24202 9.18473 7.1284 9.57709 7.06572 10.3443C7.00136 11.132 7 12.151 7 13.65V23.625C7 24.872 7.00095 25.7197 7.0459 26.3784C7.08977 27.0215 7.16965 27.3558 7.26642 27.5894C7.62165 28.447 8.30301 29.1283 9.16061 29.4836C9.39423 29.5803 9.72851 29.6602 10.3716 29.7041C11.0303 29.7491 11.878 29.75 13.125 29.75C13.1743 29.75 13.2232 29.75 13.2717 29.7499C13.9814 29.7493 14.6057 29.7487 15.2062 29.8904C15.9994 30.0777 16.7382 30.4471 17.3639 30.9693C17.8376 31.3646 18.2117 31.8644 18.637 32.4326C18.6661 32.4714 18.6954 32.5105 18.725 32.55L21 35.5833L23.275 32.55C23.3046 32.5105 23.3339 32.4714 23.3629 32.4326C23.7883 31.8644 24.1624 31.3646 24.6361 30.9693C25.2618 30.4471 26.0006 30.0777 26.7938 29.8904C27.3943 29.7487 28.0186 29.7493 28.7283 29.7499C28.7768 29.75 28.8257 29.75 28.875 29.75C30.122 29.75 30.9697 29.7491 31.6284 29.7041C32.2715 29.6602 32.6058 29.5803 32.8394 29.4836C33.697 29.1283 34.3783 28.447 34.7336 27.5894C34.8303 27.3558 34.9102 27.0215 34.9541 26.3784C34.9991 25.7197 35 24.872 35 23.625V13.65C35 12.151 34.9986 11.132 34.9343 10.3443C34.8716 9.57709 34.758 9.18473 34.6185 8.91103C34.283 8.25247 33.7475 7.71704 33.089 7.38148C32.8153 7.24202 32.4229 7.1284 31.6557 7.06572C30.868 7.00136 29.849 7 28.35 7H13.65C12.151 7 11.132 7.00136 10.3443 7.06572ZM20.9942 12.2969C19.058 11.0643 16.4679 10.9443 14.3901 12.6704C11.9182 14.7238 11.5332 18.241 13.518 20.724C14.4511 21.8914 16.5865 23.836 18.0406 25.1239C18.0824 25.161 18.1253 25.1993 18.1693 25.2387C18.6397 25.6596 19.2361 26.1931 19.9945 26.4193C20.638 26.6113 21.3524 26.6113 21.9959 26.4193C22.7543 26.1931 23.3507 25.6595 23.8211 25.2387C23.8651 25.1993 23.908 25.161 23.9499 25.1239C25.4039 23.836 27.5394 21.8914 28.4724 20.724C30.4412 18.2611 30.1265 14.7114 27.582 12.6554C25.4932 10.9675 22.9268 11.0654 20.9942 12.2969ZM19.6813 15.7345C18.8021 14.7351 17.5346 14.6083 16.6265 15.3627C15.5913 16.2226 15.4826 17.5762 16.2519 18.5387C16.9566 19.4203 18.8324 21.1498 20.3612 22.5039C20.69 22.7951 20.8597 22.9436 20.9897 23.0411C20.9916 23.0425 20.9934 23.0439 20.9952 23.0452C20.997 23.0439 20.9989 23.0425 21.0008 23.0411C21.1307 22.9436 21.3005 22.7951 21.6292 22.5039C23.158 21.1498 25.0338 19.4203 25.7385 18.5387C26.5239 17.5561 26.4052 16.2043 25.3822 15.3777C24.4257 14.6048 23.1754 14.7498 22.3091 15.7345C21.9768 16.1121 21.4982 16.3285 20.9952 16.3285C20.4922 16.3285 20.0136 16.1121 19.6813 15.7345Z" fill="#1F1F1F"/>
</svg>
