<svg width="42" height="42" viewBox="0 0 42 42" fill="none" xmlns="http://www.w3.org/2000/svg">
<path fill-rule="evenodd" clip-rule="evenodd" d="M12.5327 1.75H29.4676C30.3901 1.74997 31.1859 1.74994 31.8414 1.8035C32.5333 1.86003 33.2214 1.98483 33.8836 2.32222C34.8714 2.82555 35.6746 3.6287 36.1779 4.61655C36.5153 5.27872 36.6401 5.96685 36.6966 6.6587C36.7502 7.3142 36.7502 8.11002 36.7501 9.03251V10.2856C36.7501 10.3271 36.7502 10.3683 36.7502 10.4091C36.7507 11.0156 36.7511 11.5507 36.6429 12.0777C36.5478 12.5411 36.3905 12.9895 36.1753 13.4108C35.9306 13.8899 35.596 14.3075 35.2167 14.7808C35.1911 14.8127 35.1654 14.8448 35.1395 14.8771L28.8344 22.7585C32.5204 26.8814 32.3838 33.2155 28.4248 37.1746C24.3243 41.2751 17.676 41.2751 13.5755 37.1746C9.61643 33.2156 9.47989 26.8815 13.1659 22.7585L6.86074 14.8771C6.83483 14.8447 6.80911 14.8126 6.78358 14.7808C6.40428 14.3074 6.0697 13.8899 5.82492 13.4108C5.60971 12.9895 5.45242 12.5411 5.35732 12.0777C5.24915 11.5507 5.24958 11.0156 5.25006 10.4091C5.2501 10.3683 5.25013 10.3271 5.25013 10.2856L5.25013 9.03255C5.2501 8.11004 5.25007 7.31421 5.30363 6.6587C5.36015 5.96685 5.48496 5.27872 5.82235 4.61655C6.32568 3.6287 7.12883 2.82555 8.11668 2.32222C8.77884 1.98483 9.46698 1.86003 10.1588 1.8035C10.8143 1.74994 11.6102 1.74997 12.5327 1.75ZM15.8974 20.5702C16.5105 20.229 17.1506 19.9539 17.8071 19.745L8.75271 8.10363C8.75032 8.39244 8.75013 8.721 8.75013 9.1V10.2856C8.75013 11.0838 8.75838 11.2402 8.78586 11.3741C8.81756 11.5286 8.86999 11.678 8.94173 11.8184C9.0039 11.9401 9.09518 12.0674 9.59379 12.6907L15.8974 20.5702ZM10.9779 5.26366L21.0002 18.1495L31.0224 5.26366C30.6041 5.25063 30.0843 5.25 29.4001 5.25H12.6001C11.916 5.25 11.3962 5.25063 10.9779 5.26366ZM33.2476 8.10367L24.1933 19.745C24.8498 19.9539 25.4898 20.229 26.1029 20.5702L32.4065 12.6907C32.9051 12.0674 32.9964 11.9401 33.0585 11.8184C33.1303 11.678 33.1827 11.5286 33.2144 11.3741C33.2419 11.2402 33.2501 11.0838 33.2501 10.2856V9.1C33.2501 8.72102 33.2499 8.39248 33.2476 8.10367ZM25.9499 34.6998C28.6835 31.9661 28.6835 27.5339 25.9499 24.8003C23.2162 22.0666 18.784 22.0666 16.0504 24.8003C13.3167 27.5339 13.3167 31.9661 16.0504 34.6998C18.7841 37.4334 23.2162 37.4334 25.9499 34.6998Z" fill="#1F1F1F"/>
</svg>
