<svg width="42" height="42" viewBox="0 0 42 42" fill="none" xmlns="http://www.w3.org/2000/svg">
<path fill-rule="evenodd" clip-rule="evenodd" d="M20.7592 3.50008C20.8383 3.50013 20.9186 3.50017 21 3.50017C21.0814 3.50017 21.1617 3.50013 21.2408 3.50008C22.6327 3.49933 23.6663 3.49877 24.5617 3.73869C26.9774 4.38596 28.8642 6.27279 29.5115 8.68844C29.6557 9.2265 29.713 9.8145 29.7356 10.5002L32.9675 10.5002C33.89 10.5001 34.6858 10.5001 35.3413 10.5537C36.0332 10.6102 36.7213 10.735 37.3835 11.0724C38.3713 11.5757 39.1745 12.3789 39.6778 13.3667C40.0152 14.0289 40.14 14.717 40.1965 15.4089C40.2501 16.0644 40.25 16.8602 40.25 17.7827V31.2177C40.25 32.1402 40.2501 32.936 40.1965 33.5915C40.14 34.2833 40.0152 34.9715 39.6778 35.6336C39.1744 36.6215 38.3713 37.4246 37.3835 37.928C36.7213 38.2653 36.0332 38.3901 35.3413 38.4467C34.6858 38.5002 33.89 38.5002 32.9675 38.5002H9.03251C8.11002 38.5002 7.3142 38.5002 6.6587 38.4467C5.96685 38.3901 5.27872 38.2653 4.61655 37.928C3.6287 37.4246 2.82556 36.6215 2.32222 35.6336C1.98483 34.9715 1.86003 34.2833 1.8035 33.5915C1.74994 32.936 1.74997 32.1401 1.75 31.2176V17.7827C1.74997 16.8602 1.74994 16.0644 1.8035 15.4089C1.86003 14.717 1.98483 14.0289 2.32222 13.3667C2.82555 12.3789 3.6287 11.5757 4.61655 11.0724C5.27872 10.735 5.96685 10.6102 6.6587 10.5537C7.31421 10.5001 8.11004 10.5001 9.03255 10.5002L12.2644 10.5002C12.287 9.8145 12.3443 9.2265 12.4885 8.68844C13.1358 6.27279 15.0226 4.38596 17.4383 3.73869C18.3337 3.49877 19.3673 3.49933 20.7592 3.50008ZM9.1 14.0002C8.09103 14.0002 7.43956 14.0015 6.94372 14.042C6.46831 14.0809 6.29205 14.1468 6.20552 14.1909C5.87624 14.3587 5.60852 14.6264 5.44074 14.9557C5.39665 15.0422 5.33072 15.2185 5.29188 15.6939C5.25136 16.1897 5.25 16.8412 5.25 17.8502V31.1502C5.25 32.1591 5.25136 32.8106 5.29188 33.3065C5.33072 33.7819 5.39665 33.9581 5.44074 34.0447C5.60852 34.3739 5.87623 34.6417 6.20552 34.8094C6.29205 34.8535 6.46831 34.9195 6.94372 34.9583C7.43956 34.9988 8.09103 35.0002 9.1 35.0002H32.9C33.909 35.0002 34.5605 34.9988 35.0563 34.9583C35.5317 34.9195 35.708 34.8535 35.7945 34.8094C36.1238 34.6417 36.3915 34.3739 36.5593 34.0447C36.6034 33.9581 36.6693 33.7819 36.7081 33.3065C36.7486 32.8106 36.75 32.1591 36.75 31.1502V17.8502C36.75 16.8412 36.7486 16.1897 36.7081 15.6939C36.6693 15.2185 36.6034 15.0422 36.5593 14.9557C36.3915 14.6264 36.1238 14.3587 35.7945 14.1909C35.708 14.1468 35.5317 14.0809 35.0563 14.042C34.5605 14.0015 33.909 14.0002 32.9 14.0002H9.1ZM26.2327 10.5002H15.7673C15.7833 10.0494 15.8136 9.80219 15.8693 9.5943C16.1929 8.38648 17.1363 7.44306 18.3441 7.11943C18.7331 7.0152 19.2599 7.00017 21 7.00017C22.7401 7.00017 23.2669 7.0152 23.6559 7.11943C24.8637 7.44306 25.8071 8.38648 26.1307 9.5943C26.1864 9.80219 26.2167 10.0494 26.2327 10.5002Z" fill="#1F1F1F"/>
</svg>
