<svg width="42" height="43" viewBox="0 0 42 43" fill="none" xmlns="http://www.w3.org/2000/svg">
<path fill-rule="evenodd" clip-rule="evenodd" d="M14 2.25C14.9665 2.25 15.75 3.0335 15.75 4V5.75H26.25V4C26.25 3.0335 27.0335 2.25 28 2.25C28.9665 2.25 29.75 3.0335 29.75 4V5.75284C30.5821 5.75856 31.3093 5.77575 31.9407 5.82734C32.9244 5.90771 33.8286 6.0802 34.6779 6.51295C35.9951 7.18407 37.0659 8.25493 37.737 9.57207C38.1698 10.4214 38.3423 11.3256 38.4227 12.3093C38.5 13.2564 38.5 14.419 38.5 15.8277V30.6723C38.5 32.081 38.5 33.2436 38.4227 34.1907C38.3423 35.1744 38.1698 36.0786 37.737 36.9279C37.0659 38.2451 35.9951 39.3159 34.6779 39.987C33.8286 40.4198 32.9244 40.5923 31.9407 40.6727C30.9936 40.75 29.831 40.75 28.4223 40.75H13.5777C12.169 40.75 11.0064 40.75 10.0593 40.6727C9.07564 40.5923 8.17141 40.4198 7.32207 39.987C6.00493 39.3159 4.93407 38.2451 4.26296 36.9279C3.8302 36.0786 3.65771 35.1744 3.57734 34.1907C3.49996 33.2436 3.49998 32.081 3.5 30.6723V15.8277C3.49998 14.419 3.49996 13.2564 3.57734 12.3093C3.65771 11.3256 3.8302 10.4214 4.26296 9.57207C4.93407 8.25493 6.00493 7.18407 7.32207 6.51295C8.17141 6.0802 9.07564 5.90771 10.0593 5.82734C10.6907 5.77575 11.4179 5.75856 12.25 5.75284V4C12.25 3.0335 13.0335 2.25 14 2.25ZM12.25 9.25308C11.4703 9.25856 10.8581 9.27374 10.3443 9.31571C9.57709 9.3784 9.18473 9.49202 8.91104 9.63148C8.25247 9.96703 7.71704 10.5025 7.38148 11.161C7.24202 11.4347 7.1284 11.8271 7.06572 12.5943C7.00136 13.382 7 14.401 7 15.9V16.25H35V15.9C35 14.401 34.9986 13.382 34.9343 12.5943C34.8716 11.8271 34.758 11.4347 34.6185 11.161C34.283 10.5025 33.7475 9.96703 33.089 9.63148C32.8153 9.49202 32.4229 9.3784 31.6557 9.31571C31.1419 9.27374 30.5297 9.25856 29.75 9.25308V11C29.75 11.9665 28.9665 12.75 28 12.75C27.0335 12.75 26.25 11.9665 26.25 11V9.25H15.75V11C15.75 11.9665 14.9665 12.75 14 12.75C13.0335 12.75 12.25 11.9665 12.25 11V9.25308ZM35 19.75H7V30.6C7 32.099 7.00136 33.118 7.06572 33.9057C7.1284 34.6729 7.24202 35.0653 7.38148 35.339C7.71704 35.9975 8.25247 36.533 8.91104 36.8685C9.18473 37.008 9.57709 37.1216 10.3443 37.1843C11.132 37.2486 12.151 37.25 13.65 37.25H28.35C29.849 37.25 30.868 37.2486 31.6557 37.1843C32.4229 37.1216 32.8153 37.008 33.089 36.8685C33.7475 36.533 34.283 35.9975 34.6185 35.339C34.758 35.0653 34.8716 34.6729 34.9343 33.9057C34.9986 33.118 35 32.099 35 30.6V19.75Z" fill="#1F1F1F"/>
</svg>
