<svg width="42" height="42" viewBox="0 0 42 42" fill="none" xmlns="http://www.w3.org/2000/svg">
<path fill-rule="evenodd" clip-rule="evenodd" d="M4.01329 4.01256C4.69671 3.32915 5.80475 3.32915 6.48816 4.01256L12.8559 10.3803C12.958 10.4614 13.0522 10.5549 13.1361 10.6605L31.3204 28.8448C31.439 28.9358 31.5475 29.0433 31.6423 29.1667L37.9882 35.5126C38.6716 36.196 38.6716 37.304 37.9882 37.9874C37.3047 38.6709 36.1967 38.6709 35.5133 37.9874L29.9943 32.4684C27.4658 33.9479 24.4511 35 21.0007 35C15.9928 35 11.9101 32.7867 8.88503 30.262C5.8641 27.7407 3.79291 24.825 2.75561 23.1825C2.7419 23.1608 2.72783 23.1387 2.71346 23.116C2.5076 22.792 2.24031 22.3713 2.10522 21.7818C1.99614 21.3058 1.99618 20.6937 2.10531 20.2177C2.24049 19.6282 2.50853 19.2064 2.71493 18.8816C2.72942 18.8588 2.7436 18.8365 2.75742 18.8146C3.81156 17.1459 5.95231 14.1317 9.09257 11.5667L4.01329 6.48744C3.32987 5.80402 3.32987 4.69598 4.01329 4.01256ZM11.582 14.0561C8.71344 16.3208 6.7096 19.1117 5.71645 20.6839C5.65433 20.7822 5.6108 20.8512 5.5744 20.9111C5.55011 20.9511 5.53412 20.9787 5.52344 20.9979C5.52344 20.9986 5.52344 20.9993 5.52344 21C5.52344 21.0007 5.52344 21.0014 5.52344 21.0021C5.53397 21.021 5.54973 21.0482 5.57358 21.0875C5.60974 21.1471 5.653 21.2157 5.71486 21.3136C6.64702 22.7896 8.4917 25.3749 11.1277 27.5749C13.7596 29.7715 17.0749 31.5 21.0007 31.5C23.3684 31.5 25.5112 30.8725 27.418 29.8921L24.5564 27.0306C23.5144 27.646 22.2982 28 21.0007 28C17.1347 28 14.0007 24.866 14.0007 21C14.0007 19.7026 14.3547 18.4863 14.9702 17.4443L11.582 14.0561ZM17.619 20.0931C17.5418 20.3822 17.5007 20.6861 17.5007 21C17.5007 22.933 19.0677 24.5 21.0007 24.5C21.3146 24.5 21.6185 24.4589 21.9076 24.3817L17.619 20.0931ZM21.0007 10.5C20.3325 10.5 19.6843 10.5499 19.0561 10.6427C18.1 10.7841 17.2103 10.1236 17.069 9.16751C16.9276 8.21141 17.5881 7.32174 18.5442 7.18038C19.3384 7.06295 20.1576 7 21.0007 7C26.0087 7 30.0914 9.21326 33.1164 11.738C36.1374 14.2593 38.2085 17.175 39.2458 18.8175C39.2596 18.8392 39.2736 18.8613 39.288 18.884C39.4939 19.208 39.7612 19.6288 39.8963 20.2183C40.0053 20.6943 40.0053 21.3065 39.8961 21.7824C39.7609 22.3721 39.4924 22.7945 39.2857 23.1197C39.2712 23.1426 39.2569 23.165 39.243 23.187C38.6859 24.0687 37.8406 25.3016 36.7206 26.6393C36.1002 27.3803 34.9964 27.478 34.2554 26.8576C33.5144 26.2371 33.4166 25.1334 34.0371 24.3923C35.037 23.1982 35.7918 22.0968 36.2841 21.3175C36.3464 21.219 36.3901 21.1497 36.4266 21.0896C36.4511 21.0492 36.4673 21.0214 36.478 21.002C36.478 21.0014 36.478 21.0007 36.478 21.0001C36.478 20.9993 36.478 20.9986 36.478 20.9979C36.4675 20.979 36.4517 20.9518 36.4279 20.9125C36.3917 20.853 36.3485 20.7843 36.2866 20.6864C35.3544 19.2104 33.5098 16.6251 30.8738 14.4251C28.2419 12.2285 24.9266 10.5 21.0007 10.5Z" fill="#1F1F1F"/>
</svg>
