<svg width="42" height="42" viewBox="0 0 42 42" fill="none" xmlns="http://www.w3.org/2000/svg">
<path fill-rule="evenodd" clip-rule="evenodd" d="M14.8125 6.125C14.3752 6.125 13.9493 6.30157 13.6303 6.62637C13.3103 6.95223 13.125 7.4008 13.125 7.875C13.125 8.3492 13.3103 8.79777 13.6303 9.12363C13.949 9.44807 14.3742 9.6246 14.811 9.625C14.8105 9.625 14.8115 9.625 14.811 9.625L18.6099 9.625C18.4832 9.32514 18.3375 9.01453 18.1712 8.70672C17.3209 7.13267 16.2294 6.125 14.8125 6.125ZM23.39 9.625L27.1875 9.625C27.1872 9.625 27.1877 9.625 27.1875 9.625C27.6245 9.6248 28.0508 9.44825 28.3696 9.12363C28.6897 8.79777 28.875 8.3492 28.875 7.875C28.875 7.4008 28.6897 6.95223 28.3696 6.62637C28.0506 6.30157 27.6247 6.125 27.1875 6.125C25.7705 6.125 24.679 7.13267 23.8288 8.70672C23.6625 9.01453 23.5167 9.32514 23.39 9.625ZM27.1875 13.125C27.187 13.125 27.1879 13.125 27.1875 13.125H14.8125C14.8116 13.125 14.8107 13.125 14.8099 13.125H10.712C10.0494 13.125 9.66883 13.1266 9.39677 13.1509C9.3834 13.1521 9.37086 13.1533 9.35912 13.1545C9.36118 13.1661 9.36346 13.1785 9.36599 13.1917C9.41741 13.46 9.52039 13.8264 9.70241 14.4635L10.07 15.75L31.9299 15.75L32.2975 14.4635C32.4795 13.8264 32.5825 13.46 32.634 13.1917C32.6365 13.1785 32.6388 13.1661 32.6408 13.1545C32.6291 13.1533 32.6165 13.1521 32.6032 13.1509C32.3311 13.1266 31.9505 13.125 31.2879 13.125H27.1875ZM32.2591 19.25L9.7408 19.25L6.98831 23.8375C6.20938 25.1357 5.99393 25.5212 5.88216 25.9074C5.77001 26.2948 5.72567 26.6987 5.75111 27.1012C5.77645 27.5024 5.90314 27.9255 6.3819 29.3618L6.7456 30.4529C7.48129 32.66 7.72494 33.2979 8.09905 33.7453C8.47494 34.1948 8.95765 34.5427 9.50294 34.7571C10.0456 34.9706 10.7279 35 13.0543 35H28.9456C31.272 35 31.9543 34.9706 32.497 34.7571C33.0423 34.5427 33.525 34.1948 33.9009 33.7453C34.275 33.2979 34.5187 32.66 35.2543 30.4529L35.618 29.3618C36.0968 27.9255 36.2235 27.5024 36.2488 27.1013C36.2743 26.6987 36.2299 26.2948 36.1178 25.9074C36.006 25.5213 35.7906 25.1357 35.0116 23.8375L32.2591 19.25ZM6.85872 17.2507L6.33708 15.425C6.33104 15.4038 6.32501 15.3827 6.31899 15.3617C6.16147 14.8106 6.01302 14.2912 5.92857 13.8506C5.83874 13.382 5.77557 12.7947 5.95287 12.1698C6.1911 11.33 6.73452 10.6096 7.4765 10.1498C8.02872 9.80768 8.61075 9.70708 9.08601 9.66471C9.33871 9.64219 9.62126 9.63242 9.92275 9.62819C9.72723 9.06958 9.62497 8.47707 9.62497 7.875C9.62497 6.49269 10.164 5.16078 11.1333 4.17389C12.1036 3.18593 13.4264 2.625 14.8125 2.625C17.9532 2.625 19.9019 4.7573 21 6.6014C22.098 4.7573 24.0467 2.625 27.1875 2.625C28.5736 2.625 29.8964 3.18593 30.8667 4.17389C31.836 5.16078 32.375 6.49269 32.375 7.875C32.375 8.47707 32.2727 9.06959 32.0772 9.62819C32.3787 9.63242 32.6612 9.64219 32.9139 9.66471C33.3892 9.70708 33.9712 9.80768 34.5234 10.1498C35.2654 10.6096 35.8088 11.33 36.0471 12.1698C36.2244 12.7947 36.1612 13.382 36.0714 13.8506C35.9869 14.2912 35.8385 14.8105 35.681 15.3616L35.1412 17.2507L38.0128 22.0367C38.0473 22.0941 38.0813 22.1507 38.1149 22.2066C38.7475 23.2598 39.2253 24.0552 39.4798 24.9342C39.7041 25.709 39.7927 26.5169 39.7419 27.322C39.6842 28.2352 39.3903 29.1153 39.0011 30.2807C38.9805 30.3425 38.9596 30.4051 38.9384 30.4686L38.5747 31.5597C38.5414 31.6596 38.5087 31.7582 38.4763 31.8554C37.886 33.6308 37.4418 34.967 36.5858 35.9906C35.834 36.8895 34.8686 37.5854 33.778 38.0143C32.5363 38.5027 31.1282 38.5016 29.2572 38.5002C29.1548 38.5001 29.0509 38.5 28.9456 38.5L13.0543 38.5C12.949 38.5 12.8452 38.5001 12.7427 38.5002C10.8718 38.5016 9.46366 38.5027 8.22191 38.0143C7.13135 37.5854 6.16592 36.8895 5.41415 35.9906C4.55816 34.967 4.1139 33.6308 3.52361 31.8554C3.49128 31.7582 3.45851 31.6596 3.42521 31.5597L3.06151 30.4686C3.04035 30.4051 3.01944 30.3425 2.9988 30.2807C2.60967 29.1153 2.31577 28.2352 2.25807 27.322C2.2072 26.5169 2.29588 25.709 2.52018 24.9342C2.77462 24.0552 3.25245 23.2598 3.88511 22.2066C3.91867 22.1507 3.95267 22.0941 3.98709 22.0367L6.85872 17.2507Z" fill="#1F1F1F"/>
</svg>
