<svg width="37" height="37" viewBox="0 0 37 37" fill="none" xmlns="http://www.w3.org/2000/svg">
<g clip-path="url(#clip0_898_28)">
<path d="M30.9837 0H6.01626C2.69357 0 0 2.69357 0 6.01626V30.9837C0 34.3064 2.69357 37 6.01626 37H30.9837C34.3064 37 37 34.3064 37 30.9837V6.01626C37 2.69357 34.3064 0 30.9837 0Z" fill="#78A9EF"/>
<path d="M24.366 13.7621C22.0798 8.64826 18.8009 8.07169 17.4473 8.42265C21.3578 0.601506 26.1708 5.1137 28.9534 7.2946C31.7359 9.47549 27.8253 13.7621 27.8253 15.3413C27.8253 16.6048 29.6803 19.3772 30.6078 20.6056C29.4798 20.4552 26.6521 18.8759 24.366 13.7621Z" fill="#0C73FE"/>
<path d="M5.53938 22.1097C7.16377 21.0268 9.65116 17.798 10.8293 16.6951C11.0715 17.6978 12.1819 20.5605 13.5862 20.9817C11.6609 22.2451 7.06917 24.2154 3.96011 24.817C3.8097 24.3658 3.91498 23.1926 5.53938 22.1097Z" fill="#F98516"/>
<path d="M14.5141 37C19.3271 32.187 23.0873 21.3577 23.6889 16.5447C20.8563 16.5447 14.8149 17.763 15.1157 21.7337C15.4166 25.7044 8.97414 33.5657 5.71533 37H14.5141Z" fill="white"/>
<path d="M16.9958 22.8618C20.7339 22.8618 23.7641 19.8315 23.7641 16.0935C23.7641 12.3555 20.7339 9.3252 16.9958 9.3252C13.2578 9.3252 10.2275 12.3555 10.2275 16.0935C10.2275 19.8315 13.2578 22.8618 16.9958 22.8618Z" fill="white"/>
<path d="M17.8309 13.687C16.1971 15.1428 14.0116 15.7901 13.1606 16.0935C13.6428 16.7828 14.6352 18.1093 16.5448 17.2216C18.3103 16.4009 18.1429 14.4039 17.8309 13.687Z" fill="#141414"/>
<path d="M4.25824 3.57851C4.30317 3.56568 4.34487 3.55605 4.38338 3.54963C4.42188 3.5368 4.46039 3.52718 4.49889 3.52075C4.54382 3.50792 4.59835 3.5015 4.66253 3.5015C4.73312 3.49508 4.7973 3.4983 4.85505 3.51113C4.91923 3.51755 4.97699 3.5368 5.02832 3.56888C5.08608 3.59456 5.12778 3.63626 5.15346 3.69402C5.17913 3.7582 5.19517 3.83521 5.20159 3.92505C5.21442 4.00848 5.22084 4.09511 5.22084 4.18495C5.22084 4.27479 5.21764 4.36464 5.21121 4.45448C5.21121 4.53791 5.21121 4.61492 5.21121 4.6855V9.6044C5.21121 9.67498 5.21121 9.74879 5.21121 9.82579C5.21764 9.89638 5.21764 9.97018 5.21121 10.0472C5.20479 10.1242 5.18554 10.198 5.15346 10.2686C5.12138 10.3328 5.07325 10.3873 5.00907 10.4322C4.91923 10.5028 4.7973 10.5381 4.64328 10.5381C4.49569 10.5445 4.36733 10.5285 4.25824 10.49C4.14273 10.4515 4.07214 10.3777 4.04647 10.2686C4.02721 10.1595 4.01759 10.0504 4.01759 9.94131C3.97266 9.09422 3.95021 8.26638 3.95021 7.45779C3.95663 6.64279 3.95983 5.80532 3.95983 4.9454C3.947 4.97749 3.90208 5.00636 3.82507 5.03204C3.75448 5.05771 3.67105 5.08017 3.57479 5.09942C3.48495 5.11867 3.39832 5.13472 3.31489 5.14755C3.23146 5.16038 3.17692 5.1668 3.15125 5.1668C2.9844 5.18605 2.83039 5.17001 2.6892 5.11867C2.55443 5.06092 2.47743 4.93257 2.45817 4.73363C2.4325 4.52828 2.47743 4.36784 2.59294 4.25233C2.71487 4.13682 2.86889 4.05018 3.05499 3.99243C3.26034 3.92184 3.45928 3.85124 3.6518 3.78066C3.85074 3.70365 4.05289 3.63626 4.25824 3.57851ZM7.20508 3.79991C7.26283 3.74215 7.33664 3.70685 7.42648 3.69402C7.52274 3.67477 7.63505 3.66514 7.76339 3.66514H10.141C10.2244 3.66514 10.3175 3.66514 10.4202 3.66514C10.5293 3.65872 10.6319 3.66514 10.7282 3.6844C10.8245 3.70365 10.9079 3.73895 10.9785 3.79028C11.0555 3.83521 11.11 3.909 11.1421 4.01168C11.1614 4.07586 11.1678 4.14965 11.1614 4.23308C11.1614 4.31651 11.1453 4.39672 11.1132 4.47373C11.0876 4.54431 11.0459 4.60849 10.9881 4.66625C10.9303 4.71758 10.8598 4.74646 10.7763 4.75288C10.6095 4.78496 10.4362 4.79459 10.2565 4.78176C10.0768 4.76251 9.90357 4.75288 9.73672 4.75288C9.55062 4.75288 9.38698 4.75931 9.24579 4.77214C9.10461 4.78496 8.94418 4.79139 8.76449 4.79139C8.69391 4.79139 8.60405 4.78818 8.49496 4.78176C8.38587 4.77534 8.30244 4.78176 8.24469 4.80101C8.19335 4.81384 8.15163 4.83952 8.11955 4.87802C8.09388 4.91653 8.07462 4.96145 8.06179 5.01279C8.04896 5.05771 8.04254 5.10584 8.04254 5.15718C8.04254 5.20851 8.04254 5.25344 8.04254 5.29194C8.04254 5.40103 8.03612 5.51334 8.02329 5.62885C8.01687 5.73794 8.01046 5.84704 8.00404 5.95613C7.99121 6.10373 8.01046 6.18716 8.06179 6.20641C8.11955 6.21924 8.21581 6.20641 8.35057 6.16791C8.5816 6.11015 8.81905 6.08127 9.0629 6.08127C9.39018 6.08127 9.69501 6.1262 9.97737 6.21604C10.2597 6.29947 10.5036 6.43101 10.7089 6.6107C10.9207 6.78397 11.0844 7.00537 11.1999 7.2749C11.3218 7.53801 11.3828 7.84604 11.3828 8.199C11.3828 8.26318 11.3796 8.32414 11.3731 8.38189C11.3731 8.43965 11.3667 8.4974 11.3539 8.55516C11.3026 8.95945 11.1517 9.31562 10.9015 9.62365C10.6512 9.93168 10.3335 10.1531 9.94849 10.2878C9.49287 10.4611 9.02119 10.5413 8.53347 10.5285C8.04575 10.5092 7.59654 10.3681 7.18583 10.1049C7.07031 10.0344 6.96443 9.95093 6.86817 9.85467C6.77191 9.75199 6.70132 9.63648 6.6564 9.50814C6.60506 9.37337 6.58901 9.2354 6.60827 9.09422C6.63394 8.94662 6.72057 8.83752 6.86817 8.76693C6.97726 8.7156 7.07674 8.69955 7.16657 8.7188C7.26283 8.73163 7.35267 8.76373 7.4361 8.81506C7.51953 8.85999 7.59975 8.91774 7.67675 8.98833C7.76018 9.05251 7.8436 9.10705 7.92703 9.15197C8.07462 9.22256 8.22864 9.28353 8.38908 9.33487C8.54952 9.37979 8.71957 9.40225 8.89926 9.40225C9.29713 9.40225 9.61479 9.29636 9.85223 9.08459C10.0961 8.87282 10.218 8.58724 10.218 8.22787C10.218 7.88134 10.0929 7.61181 9.84261 7.41929C9.59233 7.22035 9.25542 7.12088 8.83188 7.12088C8.72279 7.12088 8.61368 7.12731 8.50459 7.14014C8.3955 7.15296 8.2864 7.17544 8.17731 7.20752C8.07462 7.23319 7.97196 7.26207 7.86927 7.29415C7.77301 7.32623 7.67675 7.3487 7.58049 7.36153C7.48423 7.36796 7.38797 7.35833 7.29171 7.33266C7.20187 7.30057 7.11524 7.23319 7.03181 7.13051C6.94838 7.04067 6.90667 6.93157 6.90667 6.80322C6.90667 6.67488 6.91309 6.55615 6.92592 6.44706C6.93875 6.26096 6.94838 6.07485 6.9548 5.88875C6.96123 5.70266 6.97085 5.51654 6.98368 5.33044C6.99651 5.14435 7.00614 4.96145 7.01256 4.78176C7.02539 4.59566 7.03823 4.40955 7.05106 4.22345C7.05749 4.11436 7.07352 4.02773 7.09919 3.96355C7.12487 3.89937 7.16015 3.84483 7.20508 3.79991Z" fill="white"/>
<path d="M28.2594 27.1743C28.3299 27.2578 28.3652 27.3444 28.3652 27.4342C28.3652 27.4727 28.3621 27.5144 28.3556 27.5594C28.3556 27.5979 28.3525 27.6332 28.346 27.6652C28.3267 27.7358 28.2851 27.8032 28.2209 27.8674C28.1696 27.9059 28.0989 27.9348 28.0091 27.954C27.9641 27.9668 27.9193 27.9764 27.8743 27.9829C27.8293 27.9894 27.7812 27.999 27.7299 28.0118C27.685 28.0182 27.6401 28.0214 27.5952 28.0214C27.5502 28.0214 27.5021 28.0214 27.4508 28.0214H26.9598C26.8443 28.0279 26.7288 28.031 26.6133 28.031C26.5043 28.031 26.3951 28.031 26.286 28.031C26.2925 28.23 26.2957 28.4449 26.2957 28.676C26.2957 28.9005 26.2925 29.1637 26.286 29.4653C26.286 29.7669 26.2829 30.1167 26.2764 30.5145C26.2764 30.9124 26.2764 31.3744 26.2764 31.9007V32.6323C26.2764 32.6965 26.2796 32.7446 26.286 32.7767C26.286 32.8024 26.286 32.8279 26.286 32.8537C26.286 32.8729 26.2829 32.8986 26.2764 32.9307C26.2636 32.9884 26.254 33.0558 26.2475 33.1328C26.2475 33.1649 26.2444 33.197 26.2379 33.2291C26.2314 33.2548 26.2218 33.2837 26.209 33.3157C26.1833 33.3414 26.1705 33.3607 26.1705 33.3735L26.1416 33.4312C26.1096 33.4954 26.0485 33.5564 25.9587 33.6141C25.8175 33.6847 25.6603 33.7008 25.4871 33.6622C25.378 33.6495 25.2946 33.6206 25.2368 33.5756C25.179 33.5179 25.1374 33.4601 25.1117 33.4023C25.0732 33.3318 25.0507 33.2644 25.0443 33.2002C25.025 33.1424 25.0154 33.0815 25.0154 33.0173V28.0695C24.9769 28.0695 24.8967 28.0695 24.7747 28.0695C24.6528 28.0695 24.5213 28.0695 24.3801 28.0695C24.2453 28.0631 24.117 28.0567 23.995 28.0503C23.8731 28.0438 23.7897 28.0375 23.7448 28.031C23.7063 28.0246 23.6453 28.0149 23.5619 28.0021C23.4849 27.9894 23.4206 27.9764 23.3693 27.9636C23.2346 27.9251 23.1287 27.8642 23.0517 27.7808C22.9811 27.6973 22.9458 27.6043 22.9458 27.5016C22.9458 27.4631 22.9458 27.4246 22.9458 27.3861C22.9458 27.3476 22.9523 27.3122 22.9651 27.2802C22.9843 27.2032 23.0356 27.139 23.1191 27.0877C23.1448 27.0684 23.1833 27.046 23.2346 27.0203C23.2923 26.9883 23.3469 26.9657 23.3982 26.9529C23.4752 26.9272 23.5715 26.9079 23.687 26.8952C23.7383 26.8887 23.7897 26.8855 23.841 26.8855C23.8923 26.8855 23.9469 26.8855 24.0047 26.8855C24.2292 26.8855 24.441 26.8855 24.64 26.8855C24.8453 26.8855 25.0604 26.8824 25.2849 26.8759C25.6572 26.8694 26.0261 26.8694 26.3919 26.8759C26.7642 26.8759 27.1331 26.8824 27.4989 26.8952C27.5824 26.9016 27.6625 26.9113 27.7396 26.924C27.8166 26.9368 27.8936 26.9594 27.9706 26.9914C28.0283 27.0107 28.0829 27.0364 28.1342 27.0684C28.1855 27.0941 28.2273 27.1293 28.2594 27.1743ZM34.2138 27.3476C34.2203 27.3926 34.2234 27.4342 34.2234 27.4727C34.2234 27.5112 34.2234 27.5497 34.2234 27.5882V27.9829L34.1657 32.9788V33.0751C34.1657 33.1136 34.156 33.1713 34.1368 33.2483C34.1303 33.2804 34.1207 33.3157 34.1079 33.3542C34.0951 33.3862 34.0822 33.4216 34.0694 33.4601C34.0374 33.5371 33.9924 33.5949 33.9347 33.6334C33.8834 33.6847 33.7999 33.72 33.6844 33.7393C33.5046 33.7778 33.341 33.7617 33.1934 33.6911C33.11 33.6398 33.0522 33.5756 33.0202 33.4986C33.0074 33.4858 32.9945 33.4666 32.9817 33.4408C32.9817 33.4281 32.9752 33.4088 32.9624 33.3831C32.9496 33.3511 32.94 33.3189 32.9335 33.2868C32.9271 33.2483 32.9208 33.2098 32.9143 33.1713C32.9143 33.1393 32.9111 33.1071 32.9047 33.0751C32.9047 33.043 32.9015 33.0108 32.895 32.9788C32.8823 32.9468 32.8758 32.921 32.8758 32.9018C32.8758 32.8761 32.8758 32.8472 32.8758 32.8152C32.8886 32.7894 32.895 32.7413 32.895 32.6708L32.9047 31.9103L32.9143 30.6974H32.3945L30.4404 30.7071L30.4212 32.9788V33.0751C30.4212 33.1136 30.4115 33.1713 30.3923 33.2483C30.3858 33.2804 30.3762 33.3157 30.3634 33.3542C30.3506 33.3862 30.3377 33.4216 30.3249 33.4601C30.2929 33.5371 30.2479 33.5949 30.1901 33.6334C30.1388 33.6847 30.0554 33.72 29.9399 33.7393C29.7601 33.7778 29.5965 33.7617 29.4489 33.6911C29.3847 33.6526 29.3238 33.5884 29.266 33.4986C29.2532 33.4729 29.2468 33.4536 29.2468 33.4408L29.2179 33.3831C29.2051 33.3511 29.1955 33.3189 29.189 33.2868C29.1826 33.2483 29.1762 33.2098 29.1698 33.1713C29.1698 33.1393 29.1666 33.1071 29.1601 33.0751C29.1537 33.043 29.1474 33.0108 29.1409 32.9788C29.1344 32.9275 29.1344 32.8729 29.1409 32.8152V32.6708L29.1505 31.9103L29.1698 30.4953C29.1762 30.29 29.1794 30.0782 29.1794 29.86C29.1794 29.6417 29.1794 29.4172 29.1794 29.1861C29.1729 28.9551 29.1698 28.7498 29.1698 28.5701C29.1762 28.3903 29.1859 28.1882 29.1986 27.9636V27.9251C29.2051 27.8609 29.2083 27.7968 29.2083 27.7326C29.2083 27.6621 29.2114 27.5914 29.2179 27.5208C29.2244 27.4566 29.234 27.3957 29.2468 27.338C29.266 27.2737 29.2918 27.2097 29.3238 27.1454C29.343 27.0941 29.3688 27.0523 29.4008 27.0203C29.4328 26.9818 29.4713 26.9464 29.5163 26.9144C29.619 26.8631 29.7216 26.8374 29.8243 26.8374C29.8756 26.8374 29.9206 26.8406 29.9591 26.847C29.9976 26.847 30.0361 26.8502 30.0746 26.8567C30.1516 26.8631 30.2255 26.9016 30.296 26.9722C30.3473 27.0171 30.3826 27.0684 30.4019 27.1262C30.4339 27.2097 30.4532 27.2834 30.4597 27.3476C30.4661 27.3926 30.4693 27.4342 30.4693 27.4727C30.4693 27.5112 30.4693 27.5497 30.4693 27.5882V27.9829L30.45 29.5712C30.5013 29.5712 30.5591 29.5712 30.6233 29.5712C30.6938 29.5712 30.7742 29.568 30.864 29.5616C31.1977 29.5616 31.5281 29.5647 31.8554 29.5712C32.1892 29.5777 32.5389 29.5808 32.9047 29.5808H32.9143C32.9143 29.292 32.9143 29.016 32.9143 28.753C32.9208 28.4899 32.9304 28.2139 32.9432 27.9251C32.9432 27.8609 32.9432 27.7968 32.9432 27.7326C32.9496 27.6621 32.956 27.5914 32.9624 27.5208C32.9689 27.4566 32.9785 27.3957 32.9913 27.338C33.0106 27.2737 33.0363 27.2097 33.0683 27.1454C33.0811 27.0941 33.1037 27.0523 33.1357 27.0203C33.1742 26.9818 33.2192 26.9464 33.2705 26.9144C33.3602 26.8631 33.4598 26.8374 33.5689 26.8374C33.6201 26.8374 33.6651 26.8406 33.7036 26.847C33.7486 26.847 33.7871 26.8502 33.8191 26.8567C33.9089 26.8694 33.9828 26.9079 34.0405 26.9722C34.0918 27.0042 34.1272 27.0556 34.1464 27.1262C34.1592 27.1647 34.1688 27.2032 34.1753 27.2417C34.1881 27.2737 34.201 27.3091 34.2138 27.3476Z" fill="white"/>
</g>
<defs>
<clipPath id="clip0_898_28">
<rect width="37" height="37" fill="white"/>
</clipPath>
</defs>
</svg>
