<svg width="1390" height="1170" viewBox="0 0 1390 1170" fill="none" xmlns="http://www.w3.org/2000/svg">
<g clip-path="url(#clip0_1546_5603)">
<mask id="mask0_1546_5603" style="mask-type:luminance" maskUnits="userSpaceOnUse" x="0" y="-459" width="1390" height="2087">
<path d="M0.5 1626.67L0.499909 -457.751L1389.5 -457.751L1389.5 1626.67L0.5 1626.67Z" fill="white" stroke="white"/>
</mask>
<g mask="url(#mask0_1546_5603)">
<path d="M499.472 987.507C499.472 987.507 293.872 977.394 236.573 818.947C179.275 660.503 290.5 451.488 172.533 390.808C54.5639 330.128 0.637447 178.424 98.3822 137.969C196.127 97.5152 378.134 208.765 428.691 384.065C479.248 559.365 388.245 680.728 580.362 778.493C772.482 876.26 691.593 1022.26 499.472 987.507Z" stroke="#171717" stroke-width="4.0545" stroke-miterlimit="10"/>
<path d="M555.585 422.481C555.585 422.481 570.077 272.701 483.124 185.73C396.171 98.7603 120.823 -22.0299 217.436 -152.482C314.05 -282.938 463.8 -31.6923 579.737 -118.662C695.674 -205.633 753.64 -389.233 888.901 -263.61C1024.16 -137.987 1080.52 -60.6824 1214.17 -26.8597C1347.82 6.96296 1246.37 222.948 1120.77 233.331C995.175 243.711 812.568 93.9305 737.213 176.068C661.858 258.206 821.272 316.186 840.593 422.481C859.917 528.776 797.117 538.441 710.166 494.956C623.216 451.471 568.795 506.459 555.585 422.481Z" stroke="#171717" stroke-width="4.0545" stroke-miterlimit="10"/>
<path d="M809.96 992.745C809.96 992.745 856.669 908.01 792.751 826.865C728.834 745.723 600.998 667.039 659.998 610.482C719.001 553.929 824.71 600.648 868.962 652.283C913.214 703.92 1028.76 812.039 1124.64 788.716C1220.51 765.393 1213.14 619.795 1316.39 594.238C1419.64 568.682 1458.98 642.448 1471.27 684.251C1483.56 726.051 1485.23 804.735 1386.06 836.703C1286.89 868.668 1198.39 873.587 1183.64 969.483C1168.89 1065.38 1073.01 1104.72 977.135 1119.47C881.253 1134.23 773.083 1065.18 809.96 992.745Z" stroke="#171717" stroke-width="4.0545" stroke-miterlimit="10"/>
<path d="M-59.2799 69.209C-59.2799 69.209 36.5495 69.2089 81.4715 -29.637C126.391 -128.483 24.5733 -248.294 81.4715 -329.167C138.37 -410.039 362.972 -194.379 446.825 -233.318C530.678 -272.257 434.846 -428.027 485.756 -456.475C536.666 -484.922 633.215 -442.989 644.833 -499.899C656.451 -556.808 605.543 -574.782 551.639 -556.808C497.735 -538.835 380.941 -496.901 210.244 -526.856C39.5463 -556.808 -62.2739 -559.817 -104.199 -456.472C-146.124 -353.13 -59.2799 69.209 -59.2799 69.209Z" stroke="#171717" stroke-width="4.0545" stroke-miterlimit="10"/>
<path d="M1410.17 481.995C1410.17 481.995 1305.6 474.101 1234.57 551.064C1163.54 628.025 1122.17 689.2 1060.98 667.495C999.789 645.787 910.293 556.987 921.499 468.184C932.705 379.382 860.967 296.502 921.499 286.634C982.03 276.765 1027.41 333.995 1084.62 333.995C1141.84 333.995 1281.92 286.456 1329.27 129.66C1376.62 -27.1326 1228.65 -82.3878 1238.52 -149.483C1248.38 -216.577 1295.73 -342.612 1410.16 -306.236C1524.6 -269.858 1492.78 -13.2938 1477.12 110.029C1461.46 233.35 1603.52 458.313 1410.17 481.995Z" stroke="#171717" stroke-width="4.0545" stroke-miterlimit="10"/>
<path d="M-60.6172 399.466C-60.6172 399.466 88.2018 418.219 116.105 526.293C144.008 634.368 67.274 629.716 74.249 727.397C81.224 825.078 260.273 897.461 227.719 990.348C195.165 1083.24 -21.0883 1090.63 -74.57 992.742C-128.052 894.85 -46.6671 732.049 -9.46238 629.716C27.7424 527.383 -49.739 539.159 -115.636 526.293C-181.533 513.428 -183.857 371.558 -60.6172 399.466Z" stroke="#171717" stroke-width="4.0545" stroke-miterlimit="10"/>
<path d="M462.398 936.94C462.398 936.94 334.318 883 297.244 818.947C260.167 754.895 334.321 613.306 297.244 498.686C260.167 384.066 178.546 344.184 149.006 289.674C82.3886 166.749 283.761 191.91 324.207 306.53C364.653 421.15 351.17 535.77 391.616 650.39C432.063 765.01 563.401 768.236 610.7 866.145C657.996 964.056 528.117 970.21 462.398 936.94Z" stroke="#171717" stroke-width="1.8772" stroke-miterlimit="10"/>
<path d="M531.908 154.511C531.908 154.511 280.652 -29.5452 296.576 -77.3291C312.5 -125.113 413.358 -93.2561 462.9 -47.2435C512.443 -1.22804 546.064 32.3972 584.99 -24.2372C623.918 -80.8688 724.774 -208.293 806.166 -195.906C887.559 -183.519 956.567 -75.5606 1023.8 -31.3164C1091.04 12.9278 1212.54 5.84848 1204.88 81.9495C1197.21 158.051 1099.89 193.444 999.035 136.813C898.179 80.181 714.16 37.2326 671.692 110.03C629.225 182.828 591.375 199.981 531.908 154.511Z" stroke="#171717" stroke-width="1.8772" stroke-miterlimit="10"/>
<path d="M620.839 10.0773C620.839 10.0773 696.325 -151.175 791.59 -136.516C886.855 -121.857 965.379 2.74778 1054.36 19.851C1143.34 36.9542 1158 92.7043 1096.93 110.03C1035.86 127.356 980.263 44.2838 896.918 12.5215C813.574 -19.2408 730.355 24.7365 681.582 41.8397C632.813 58.9429 602.6 43.4551 620.839 10.0773Z" stroke="#171717" stroke-width="1.8772" stroke-miterlimit="10"/>
<path d="M579.072 248.141C588.861 226.781 632.813 203.094 667.012 281.277C701.209 359.461 791.592 364.346 796.477 415.653C801.361 466.96 754.949 466.96 708.537 442.527C662.125 418.095 620.114 435.198 615.471 376.561C610.828 317.925 566.301 276.008 579.072 248.141Z" stroke="#171717" stroke-width="1.8772" stroke-miterlimit="10"/>
<path d="M674.951 -20.2585C674.951 -20.2585 733.984 -120.025 809.3 -100.681C884.619 -81.3391 927.531 -23.4311 918.268 -12.5397C909.33 -2.02642 865.278 -38.5824 815.408 -37.5647C765.535 -36.547 718.716 -1.93479 700.396 5.19178C682.076 12.3183 653.414 8.97346 674.951 -20.2585Z" stroke="#171717" stroke-width="1.8772" stroke-miterlimit="10"/>
<path d="M989.454 24.4705C989.454 24.4705 1060.76 39.7413 1081.59 52.9739C1102.43 66.2094 1098.92 95.7306 1054.36 82.4951C1009.81 69.2624 966.132 19.0234 989.454 24.4705Z" stroke="#171717" stroke-width="1.8772" stroke-miterlimit="10"/>
<path d="M559.896 135.999C559.896 135.999 410.527 32.2033 378.382 -8.56524C346.239 -49.3337 357.582 -70.1378 390.672 -55.9542C423.76 -41.7706 504.118 32.2645 528.699 37.7978C553.28 43.3311 571.241 29.1474 584.477 45.2218C597.712 61.2962 610.003 107.631 606.222 124.651C602.439 141.671 583.768 152.874 559.896 135.999Z" stroke="#171717" stroke-width="1.8772" stroke-miterlimit="10"/>
<path d="M1081.59 575.84C1081.59 575.84 963.505 542.512 982.962 467.084C1002.42 391.659 1133.95 418.58 1240.93 342.849C1347.91 267.118 1375.97 104.463 1414.55 129.658C1453.14 154.853 1475.93 305.706 1439.1 381.134C1402.28 456.56 1290.04 402.183 1226.9 449.544C1163.76 496.905 1148.49 593.382 1081.59 575.84Z" stroke="#171717" stroke-width="1.8772" stroke-miterlimit="10"/>
<path d="M1377.72 -1.2612C1377.72 -1.2612 1270.74 -139.641 1309.33 -196.748C1347.91 -253.852 1443.06 -236.313 1457.74 -185.442C1472.43 -134.572 1433.84 12.5415 1412.8 24.0586C1391.75 35.5756 1394.42 22.1121 1377.72 -1.2612Z" stroke="#171717" stroke-width="1.8772" stroke-miterlimit="10"/>
<path d="M1093.88 516.2C1093.88 516.2 1001.08 488.317 1054.36 458.407C1107.64 428.496 1255.71 402.184 1300.93 325.004C1346.15 247.824 1390 176.945 1412.8 227.295C1435.6 277.645 1423.32 327.918 1370.71 363.298C1318.09 398.677 1269.09 393.417 1216.43 421.481C1163.77 449.545 1141.5 521.464 1093.88 516.2Z" stroke="#171717" stroke-width="1.8772" stroke-miterlimit="10"/>
<path d="M874.717 1007.41C874.717 1007.41 919.008 950.907 874.717 863.576C830.426 776.247 709.31 647.218 796.832 671.92C884.355 696.623 953.691 824.615 1012.75 853.085C1071.82 881.555 1159.13 845.597 1148.86 904.672C1138.59 963.748 1033.75 1063.92 957.767 1053.65C881.784 1043.37 862.994 1030.02 874.717 1007.41Z" stroke="#171717" stroke-width="1.8772" stroke-miterlimit="10"/>
<path d="M1197.09 794.011C1197.09 794.011 1242.65 741.77 1261.54 692.865C1280.43 643.961 1363.78 610.614 1411.56 649.516C1459.35 688.419 1449.45 771.78 1386.06 788.452C1322.66 805.125 1269.32 809.571 1237.09 826.243C1204.87 842.915 1171.58 826.752 1197.09 794.011Z" stroke="#171717" stroke-width="1.8772" stroke-miterlimit="10"/>
<path d="M1239.31 779.56C1239.31 779.56 1271.43 737.323 1300.93 700.642C1330.44 663.964 1386 653.959 1407.12 686.192C1428.23 718.424 1396.01 739.545 1346 743.988C1295.99 748.434 1264.87 772.887 1254.87 779.557C1244.87 786.23 1234.59 785.752 1239.31 779.56Z" stroke="#171717" stroke-width="1.8772" stroke-miterlimit="10"/>
<path d="M930.38 945.173C930.38 945.173 925.935 887.326 885.928 832.886C845.921 778.448 811.471 720.254 844.812 732.68C878.149 745.104 948.859 851.808 982.961 881.818C1017.06 911.829 1088.47 885.152 1093.88 922.943C1099.3 960.733 1027.06 991.856 988.168 998.524C949.273 1005.19 934.825 996.302 930.38 945.173Z" stroke="#171717" stroke-width="1.8772" stroke-miterlimit="10"/>
<path d="M530.819 925.197C530.819 925.197 353.149 857.696 333.867 799.839C314.585 741.981 386.204 730.962 460.58 772.289C534.953 813.616 559.387 849.433 576.781 879.738C594.176 910.043 577.648 936.217 530.819 925.197Z" stroke="#171717" stroke-width="1.8772" stroke-miterlimit="10"/>
<path d="M501.896 878.359C501.896 878.359 353.15 806.726 390.335 792.948C427.523 779.173 521.178 839.339 536.329 861.603C551.48 883.87 525.034 890.018 501.896 878.359Z" stroke="#171717" stroke-width="1.8772" stroke-miterlimit="10"/>
<path d="M297.625 419.137C297.625 419.137 244.418 342.671 204.128 308.735C163.837 274.798 158.26 225.443 205.876 237.9C253.492 250.357 274.737 295.327 290.388 344.479C306.042 393.631 312.078 439.093 297.625 419.137Z" stroke="#171717" stroke-width="1.8772" stroke-miterlimit="10"/>
<path d="M752.446 431.023C752.446 431.023 698.854 416.486 671.601 405.583C644.349 394.681 635.72 382.416 629.362 339.259C623.004 296.102 592.185 266.575 606.913 258.851C621.642 251.129 638.447 257.488 649.347 287.471C660.248 317.454 662.499 338.349 681.584 358.339C700.669 378.328 754.262 387.868 766.98 404.674C779.699 421.483 772.084 436.556 752.446 431.023Z" stroke="#171717" stroke-width="1.8772" stroke-miterlimit="10"/>
<path d="M569.05 119.37C569.05 119.37 476.737 55.036 442.788 25.2506C408.841 -4.53466 402.884 -21.1429 424.921 -12.5399C446.958 -3.93686 495.794 44.9091 521.999 55.0359C548.203 65.1627 566.668 60.3968 579.172 77.0774C591.682 93.7551 582.933 129.132 569.05 119.37Z" stroke="#171717" stroke-width="1.8772" stroke-miterlimit="10"/>
<path d="M652.219 1034.47C652.219 1034.47 766.864 1081.26 758.207 1163.9C749.553 1246.53 695.081 1300.95 682.124 1292.86C669.619 1285.06 701.353 1232.78 692.476 1180.22C683.6 1127.67 639.707 1083.59 629.312 1065.34C618.915 1047.09 617.964 1016.28 652.219 1034.47Z" stroke="#171717" stroke-width="2.0054" stroke-miterlimit="10"/>
<path d="M704.294 1148.4C704.294 1148.4 665.366 1091.6 660.69 1080.28C656.011 1068.96 702.798 1074.05 725.244 1124.28C747.69 1174.5 728.222 1228.94 716.779 1236.14C705.334 1243.33 711.797 1192.33 710.966 1179.94C710.132 1167.55 710.908 1158.13 704.294 1148.4Z" stroke="#171717" stroke-width="2.0054" stroke-miterlimit="10"/>
<path d="M1307.25 732.681C1307.25 732.681 1342.67 724.712 1364.36 723.319C1386.06 721.926 1399.78 707.294 1392.92 695.452C1386.06 683.61 1359.83 679.778 1334.41 690.575C1308.99 701.375 1291.14 736.018 1307.25 732.681Z" stroke="#171717" stroke-width="1.8772" stroke-miterlimit="10"/>
<path d="M966.16 964.077C966.16 964.077 951.284 912.003 931.201 880.013C911.118 848.025 892.523 815.289 907.401 821.243C922.277 827.193 943.102 875.55 972.854 897.124C1002.61 918.698 1045.75 914.978 1050.95 932.089C1056.16 949.201 1021.2 967.797 1004.09 969.285C986.987 970.773 969.662 975.402 966.16 964.077Z" stroke="#171717" stroke-width="1.8772" stroke-miterlimit="10"/>
<path d="M-62.5051 506.449C-62.5051 506.449 -127.207 502.306 -111.984 457.269C-96.7602 412.233 1.86029 434.121 47.6997 487.416C93.5391 540.711 104.006 583.537 64.0433 642.54C24.0808 701.544 39.3931 771.97 88.827 815.747C138.261 859.524 205.643 919.411 197.166 952.756C188.69 986.1 117.553 1029.88 35.6123 987.051C-46.3282 944.225 -50.8207 871.897 -22.8845 787.199C5.05173 702.5 53.5794 603.524 28.8402 556.891C4.09819 510.255 -32.7924 513.826 -62.5051 506.449Z" stroke="#171717" stroke-width="1.8772" stroke-miterlimit="10"/>
<path d="M9.80907 769.11C9.80907 769.11 -24.4433 834.776 -3.51269 884.264C17.4207 933.752 64.9949 969.95 118.279 961.349C171.563 952.749 163.952 908.055 130.647 880.458C97.3457 852.858 52.849 841.438 41.7958 814.792C30.7397 788.146 26.9339 741.513 9.80907 769.11Z" stroke="#171717" stroke-width="1.8772" stroke-miterlimit="10"/>
<path d="M98.296 936.608C98.296 936.608 37.4001 914.72 25.0319 875.7C12.6637 836.681 33.5943 839.973 65.9452 861.645C98.296 883.314 126.841 909.009 129.696 925.189C132.551 941.366 118.112 945.537 98.296 936.608Z" stroke="#171717" stroke-width="1.8772" stroke-miterlimit="10"/>
<path d="M51.2073 584.893C51.2073 584.893 55.7054 534.785 21.4308 514.487C-12.8439 494.189 -72.4554 491.019 -81.9686 478.331C-91.4817 465.646 -89.5774 441.542 -42.0144 453.593C5.54861 465.644 43.5985 484.04 63.8925 525.27C84.1865 566.5 68.966 593.774 59.4528 598.215C49.9369 602.653 51.1073 595.142 51.2073 584.893Z" stroke="#171717" stroke-width="1.8772" stroke-miterlimit="10"/>
<path d="M29.0524 506.115C29.0524 506.115 18.1965 496.822 -10.2874 490.318C-38.7713 483.815 -73.146 470.804 -62.9267 465.694C-52.7074 460.583 -14.6159 467.087 7.68252 481.026C29.9809 494.962 40.6644 508.436 29.0524 506.115Z" stroke="#171717" stroke-width="1.8772" stroke-miterlimit="10"/>
<path d="M681.585 992.745C681.585 992.745 726.026 952.469 714.581 877.939C703.136 803.409 587.399 741.563 530.323 693.991C473.246 646.418 489.957 527.422 462.577 395.837C435.197 264.253 317.436 130.233 197.162 110.027C76.8934 89.8233 27.8014 122.278 21.4324 208.331C15.0634 294.383 89.1643 363.238 156.957 413.316C224.753 463.394 210.069 490.19 208.482 548.484C206.897 606.779 176.773 747.975 219.58 837.537C262.386 927.099 334.452 975.511 432.389 1000.46C530.325 1025.41 634.667 1032.73 681.585 992.745Z" stroke="#171717" stroke-width="1.8772" stroke-miterlimit="10"/>
<path d="M212.819 389.684C212.819 389.684 85.7034 311.345 93.4068 241.995C101.11 172.645 156.788 162.371 231.67 189.34C306.549 216.309 353.593 270.249 378.223 351.157C402.851 432.066 396.432 614.431 425.964 665.799C455.496 717.17 509.423 760.833 553.08 782.666C596.737 804.499 662.89 859.159 646.505 905.956C630.119 952.75 606.995 994.878 483.096 962.618C359.197 930.358 278.246 872.564 265.436 801.932C252.626 731.298 274.452 645.571 279.589 574.778C284.724 503.985 255.645 420.543 212.819 389.684Z" stroke="#171717" stroke-width="1.8772" stroke-miterlimit="10"/>
<path d="M527.775 405.879C527.775 405.879 534.989 261.626 462.578 196.778C390.168 131.93 231.391 62.6719 190.372 -12.5421C149.353 -87.7562 164.334 -234.653 293.129 -218.773C421.924 -202.893 433.83 -126.289 511.898 -137.461C589.964 -148.634 643.601 -219.819 690.216 -269.585C736.831 -319.351 767.158 -354.044 831.384 -332.729C895.611 -311.413 956.476 -233.332 1026.6 -172.455C1096.73 -111.577 1184.92 -73.122 1230.8 -50.6635C1276.68 -28.2049 1292.45 -28.1272 1301.1 33.3731C1309.76 94.8735 1285.94 177.075 1210.52 227.289C1135.1 277.506 1076.56 269.565 980.793 236.479C885.022 203.393 812.269 171.631 773.227 192.805C734.184 213.979 777.741 276.18 831.382 334.41C885.022 392.64 888.511 440.282 870.888 489.248C853.266 538.214 816.978 559.388 737.209 535.567C657.44 511.746 620.391 499.834 591.281 502.481C562.177 505.136 518.512 473.374 527.775 405.879Z" stroke="#171717" stroke-width="1.8772" stroke-miterlimit="10"/>
<path d="M-64.7686 371.818C-64.7686 371.818 65.1103 369.407 123.549 459.853C181.987 550.299 158.907 582.859 130.057 641.951C101.206 701.044 97.8726 763.754 159.825 818.019C221.777 872.287 269.307 904.152 265.437 955.15C261.567 1006.15 219.367 1082.12 116.882 1091.77C14.3975 1101.42 -71.7852 1132.55 -114.3 1004.83C-156.814 877.114 -113.407 850.132 -82.0601 736.996C-50.7129 623.861 15.6013 571.267 -50.7129 562.592C-117.027 553.916 -183.341 564.772 -185.751 497.237C-188.167 429.701 -159.605 370.611 -64.7686 371.818Z" stroke="#171717" stroke-width="1.8772" stroke-miterlimit="10"/>
<path d="M-46.0333 103.126C-46.0333 103.126 55.5535 92.6544 101.799 1.5412C148.047 -89.5693 89.1859 -215.509 101.799 -269.582C114.412 -323.659 184.957 -309.639 231.669 -280.204C278.379 -250.769 400.307 -177.88 468.976 -205.913C537.647 -233.947 497.293 -355.624 498.549 -399.915C499.806 -444.207 526.227 -449.812 585.191 -447.01C644.155 -444.207 707.219 -436.502 725.439 -456.475C743.656 -476.447 793.891 -594.193 576.778 -588.584C359.663 -582.979 259.102 -544.032 135.604 -563.504C12.1048 -582.976 -136.811 -620.825 -160.455 -528.31C-184.099 -435.796 -204.513 -382.531 -185.895 -281.608C-167.28 -180.685 -111.647 -74.1539 -115.639 -36.3077C-119.628 1.54121 -83.4577 112.196 -46.0333 103.126Z" stroke="#171717" stroke-width="1.8772" stroke-miterlimit="10"/>
<path d="M750.536 1041.45C750.536 1041.45 850.005 961.38 785.965 865.724C721.925 770.067 635.408 726.985 615.47 666.775C595.532 606.565 619.334 568.093 681.584 561.203C743.834 554.313 821.905 559.371 874.716 603.195C927.528 647.019 951.119 700.803 1013.47 732.908C1075.83 765.012 1131.2 795.715 1171.76 725.581C1212.33 655.447 1238.94 577.608 1325.91 562.59C1412.88 547.57 1493.77 604.88 1505.57 700.959C1517.36 797.038 1474.26 850.976 1394.7 877.944C1315.13 904.913 1230.13 879.507 1205.22 973.962C1180.31 1068.42 1164.88 1100.44 1081.59 1134.16C998.307 1167.87 902.083 1172.93 831.384 1134.16C760.686 1095.38 750.536 1041.45 750.536 1041.45Z" stroke="#171717" stroke-width="1.8772" stroke-miterlimit="10"/>
<path d="M569.776 664.756C569.776 664.756 519.297 650.912 520.111 601.237C520.926 551.563 550.133 527.948 585.194 527.133C620.255 526.318 634.536 550.303 602.969 558.67C571.402 567.037 543.722 574.366 551.047 602.052C558.375 629.741 586.87 659.056 588.499 664.756C590.131 670.457 581.652 669.584 569.776 664.756Z" stroke="#171717" stroke-width="1.8772" stroke-miterlimit="10"/>
<path d="M101.871 58.4195C101.871 58.4195 130.791 -30.6695 145.828 -20.2563C160.865 -9.84312 152.77 10.9832 163.181 31.8095C173.592 52.6359 225.648 60.7358 218.706 74.6191C211.764 88.5025 140.046 75.7759 119.224 74.6191C98.4014 73.4624 98.5738 68.0764 101.871 58.4195Z" stroke="#171717" stroke-width="1.8772" stroke-miterlimit="10"/>
<path d="M-58.3874 142.409C-58.3874 142.409 -3.70757 134.351 -6.30409 194.211C-8.89782 254.071 -8.89782 274.789 3.75952 308.172C16.4196 341.555 -50.3337 356.52 -58.3902 319.683C-66.4466 282.847 -83.0349 139.845 -58.3874 142.409Z" stroke="#171717" stroke-width="1.8772" stroke-miterlimit="10"/>
<path d="M183.303 802.01C183.303 802.01 125.888 771.613 135.607 718.896C145.326 666.18 172.253 601.713 172.025 554.518C171.794 507.321 146.607 470.431 135.607 450.314C124.606 430.197 169.492 437.863 183.303 463.958C197.114 490.054 197.114 529.899 190.209 561.203C183.303 592.506 164.541 691.269 170.087 718.896C175.636 746.521 197.231 811.383 183.303 802.01Z" stroke="#171717" stroke-width="1.8772" stroke-miterlimit="10"/>
<path d="M483.095 363.121C483.095 363.121 428.943 224.547 359.276 179.613C289.61 134.679 269.535 99.2521 305.831 116.355C342.127 133.459 432.802 180.639 462.578 227.291C492.355 273.943 497.42 339.912 498.552 363.121C499.683 386.333 493.97 388.402 483.095 363.121Z" stroke="#171717" stroke-width="1.8772" stroke-miterlimit="10"/>
<path d="M1164.44 671.919C1164.44 671.919 1153.32 731.687 1107.59 739.692C1061.87 747.694 972.711 679.601 936.132 632.474C899.553 585.346 854.973 573.15 854.973 558.669C854.973 544.188 880.563 506.459 896.915 528.18C913.269 549.902 913.269 567.053 942.987 607.068C972.708 647.083 1032.15 696.863 1069.87 708.558C1107.59 720.253 1125.88 706.481 1139.6 684.214C1153.32 661.948 1167.73 659.84 1164.44 671.919Z" stroke="#171717" stroke-width="1.8772" stroke-miterlimit="10"/>
<path d="M889.617 391.167C889.617 391.167 874.38 337.316 841.87 310.898C809.364 284.48 777.185 229.614 796.829 218.436C816.475 207.259 908.073 225.549 957.763 243.837C1007.45 262.127 958.694 262.775 913.997 255.846C869.3 248.917 852.167 265.82 870.891 303.09C889.617 340.367 904.854 413.52 889.617 391.167Z" stroke="#171717" stroke-width="1.8772" stroke-miterlimit="10"/>
<path d="M1255.95 967.634C1255.95 967.634 1257.73 926.218 1302.79 926.218C1347.85 926.218 1387.24 922.178 1419.56 914.095C1451.88 906.014 1413.5 970.665 1367.04 977.736C1320.58 984.807 1242.82 982.513 1255.95 967.634Z" stroke="#171717" stroke-width="1.8772" stroke-miterlimit="10"/>
<path d="M721.223 1007.25C721.223 1007.25 746.616 952.522 731.587 901.218C716.558 849.914 669.117 809.107 684.677 812.605C700.24 816.103 761.188 876.733 765.103 929.202C769.017 981.671 765.586 989.698 743.986 1007.25C722.391 1024.81 714.306 1026.22 721.223 1007.25Z" stroke="#171717" stroke-width="1.7469" stroke-miterlimit="10"/>
<path d="M836.442 281.39C836.442 281.39 801.192 242.927 813.368 235.236C825.545 227.542 890.764 234.594 884.753 241.006C878.743 247.415 845.416 243.569 839.648 252.545C833.879 261.521 846.695 274.981 847.979 283.957C849.264 292.933 841.188 286.84 836.442 281.39Z" stroke="#171717" stroke-width="1.8772" stroke-miterlimit="10"/>
<path d="M1149.69 596.675C1149.69 596.675 1181.56 501.238 1254.47 477.745C1327.38 454.252 1428.72 460.124 1460.99 419.014C1493.26 377.9 1487.39 228.137 1447.76 156.19C1408.12 84.2433 1387.38 68.5164 1359.58 127.036C1331.79 185.556 1298.61 280.995 1238.13 316.233C1177.65 351.471 1094.04 388.18 1060.98 374.964C1027.91 361.748 988.905 325.042 957.764 329.447C926.622 333.851 959.546 385.241 957.764 421.947C955.982 458.653 940.211 486.551 962.776 530.6C985.341 574.65 1033.79 615.76 1074.89 623.101C1115.99 630.445 1136.41 626.838 1149.69 596.675Z" stroke="#171717" stroke-width="1.8772" stroke-miterlimit="10"/>
<path d="M286.576 -12.5403C286.576 -12.5403 221.777 -84.034 250.714 -122.022C279.651 -160.01 386.884 -133.102 462.581 -79.6268C538.277 -26.1512 557.026 -33.6726 615.472 -103.173C673.919 -172.673 745.148 -272.784 810.812 -247.15C876.478 -221.513 948.819 -125.867 1017.54 -79.6268C1086.27 -33.3862 1199.03 -24.3688 1238.13 15.4543C1277.23 55.2802 1240.81 161.069 1164.44 179.613C1088.08 198.156 1064.6 180.989 944.313 144.35C824.028 107.707 715.561 105.016 690.218 144.35C664.876 183.683 684.992 268.704 743.658 317.545C802.325 366.385 827.645 411.608 818.601 445.979C809.558 480.349 776.949 491.202 714.582 469.494C652.216 447.786 588.709 469.494 585.195 413.416C581.681 357.34 588.72 301.646 546.317 227.288C503.914 152.931 404.543 73.9183 359.279 41.9725C314.012 10.0294 298.758 2.53867 286.576 -12.5403Z" stroke="#171717" stroke-width="1.8772" stroke-miterlimit="10"/>
<path d="M320.343 718.896C320.343 718.896 330.46 659.809 330.685 603.428C330.913 547.047 302.726 471.282 314.177 467.759C325.628 464.236 346.767 521.499 349.408 569.95C352.052 618.404 348.527 634.261 363.5 661.572C378.473 688.883 407.405 708.263 393.379 713.549C379.354 718.835 367.904 704.74 349.405 713.549C330.913 722.358 318.092 733.611 320.343 718.896Z" stroke="#171717" stroke-width="1.8772" stroke-miterlimit="10"/>
<path d="M248.998 329.939C248.998 329.939 187.301 275.707 197.89 267.78C208.479 259.852 247.235 279.233 257.805 306.543C268.377 333.851 257.074 337.241 248.998 329.939Z" stroke="#171717" stroke-width="1.8772" stroke-miterlimit="10"/>
<path d="M957.763 1089.37C957.763 1089.37 840.088 1073.48 847.975 1020.96C855.862 968.431 886.598 908.985 831.382 832.887C776.168 756.786 666.244 666.082 707.466 641.346C748.688 616.607 806.398 626.228 842.121 659.211C877.846 692.194 962.041 795.269 1009.94 815.884C1057.85 836.499 1110.99 826.878 1149.68 846.12C1188.38 865.361 1189.97 912.086 1164.44 942.321C1138.91 972.557 1120.78 1035.88 1087.94 1054.38C1055.1 1072.88 1009.57 1101.74 957.763 1089.37Z" stroke="#171717" stroke-width="1.8772" stroke-miterlimit="10"/>
<path d="M1158.13 445.302C1158.13 445.302 1133.12 483.665 1109.77 488.67C1086.42 493.675 1071.12 474.492 1087.94 466.988C1104.77 459.477 1159.8 429.456 1158.13 445.302Z" stroke="#171717" stroke-width="1.8772" stroke-miterlimit="10"/>
<path d="M1293.21 363.432C1293.21 363.432 1339.9 307.693 1354.91 276C1369.92 244.31 1384.45 235.134 1394.7 253.483C1404.94 271.832 1390.77 308.527 1375.76 324.37C1360.75 340.219 1282.51 376.589 1293.21 363.432Z" stroke="#171717" stroke-width="1.8772" stroke-miterlimit="10"/>
<path d="M311.418 1925.31C311.418 1925.31 236.406 1808.3 242.121 1734.51C247.834 1660.72 389.125 1586.03 423.472 1470.56C457.822 1355.09 413.136 1275.99 419.658 1214.33C434.364 1075.28 586.077 1210.09 554.504 1327.47C522.932 1444.84 446.916 1531.67 415.346 1649.05C383.773 1766.42 490.192 1843.48 473.729 1950.97C457.268 2058.46 346.744 1989.96 311.418 1925.31Z" stroke="#171717" stroke-width="1.8772" stroke-miterlimit="10"/>
<path d="M1049.97 1192.05C1049.97 1192.05 1152.27 1197 1181.98 1119.43C1211.68 1041.86 1247.98 1027 1317.28 1055.06C1386.59 1083.12 1399.79 1107.47 1404.74 1159.66C1409.69 1211.85 1304.08 1280.22 1236.43 1281.52C1168.77 1282.82 1157.22 1238.26 1112.67 1225.06C1068.12 1211.85 1014.46 1194.85 1049.97 1192.05Z" stroke="#171717" stroke-width="2.1444" stroke-miterlimit="10"/>
<path d="M1246.33 1236.61C1246.33 1236.61 1165.47 1237.89 1186.93 1173.9C1208.38 1109.9 1254.58 1083.12 1295.83 1093.02C1337.09 1102.93 1368.44 1123.97 1368.44 1159.66C1368.44 1195.35 1307.39 1231.66 1246.33 1236.61Z" stroke="#171717" stroke-width="2.1444" stroke-miterlimit="10"/>
<path d="M1214.98 1188.75C1214.98 1188.75 1234.78 1097.97 1290.88 1119.43C1346.99 1140.88 1300.46 1178.84 1275.87 1188.75C1251.28 1198.65 1209.03 1208.18 1214.98 1188.75Z" stroke="#171717" stroke-width="2.1444" stroke-miterlimit="10"/>
<path d="M24.4619 1589.68C24.4619 1589.68 -82.91 1587.49 -83.0546 1519.31C-83.1963 1451.13 34.1502 1444.93 108.076 1357.2C182.002 1269.46 169.92 1125.5 208.153 1138.34C246.387 1151.17 298.948 1273.92 284.375 1345.93C269.805 1417.94 162.748 1396.63 119.708 1450.67C76.6676 1504.7 84.9937 1589.79 24.4619 1589.68Z" stroke="#171717" stroke-width="1.643" stroke-miterlimit="10"/>
<path d="M256.975 1073.73C256.975 1073.73 266.375 993.065 297.714 986.636C329.055 980.208 354.948 1016.92 343.314 1038.58C331.68 1060.23 271.126 1096.54 260.4 1093.53C249.678 1090.52 254.932 1086.91 256.975 1073.73Z" stroke="#171717" stroke-width="0.8716" stroke-miterlimit="10"/>
<path d="M276.269 1056.15C276.269 1056.15 290.23 996.908 306.865 1004.06C323.501 1011.22 328.911 1018.79 319.322 1036.75C309.734 1054.71 276.588 1076.97 273.094 1073.55C269.602 1070.14 274.033 1064.58 276.269 1056.15Z" stroke="#171717" stroke-width="0.8716" stroke-miterlimit="10"/>
<path d="M460.462 2095.46C460.462 2095.46 519.896 2087.45 552.667 2019.54C585.437 1951.63 525.072 1835.1 504.973 1763.56C484.874 1692.02 566.027 1603.42 617.974 1479.46C669.919 1355.51 648.757 1178.34 561.076 1093.55C473.395 1008.77 414.562 1007.71 360.582 1075.02C306.603 1142.33 328.685 1241.05 356.201 1320.73C383.718 1400.41 356.44 1414.17 322.127 1461.32C287.808 1508.47 183.029 1607.77 167.592 1705.83C152.155 1803.89 184.136 1884.61 250.72 1960.66C317.301 2036.7 399.149 2101.85 460.462 2095.46Z" stroke="#171717" stroke-width="1.8772" stroke-miterlimit="10"/>
<path d="M415.618 1332.9C415.618 1332.9 355.217 1196.33 400.837 1143.54C446.457 1090.75 498.162 1113.82 544.602 1178.47C591.042 1243.11 599.27 1314.22 573.753 1394.85C548.235 1475.48 439.679 1622.14 434.928 1681.21C430.177 1740.27 449.895 1806.81 473.512 1849.53C497.128 1892.26 520.697 1974.78 480.695 2004.07C440.694 2033.35 397.779 2054.97 313.937 1958.2C230.092 1861.42 196.104 1767.93 225.544 1702.46C254.984 1636.99 321.518 1578.71 365.837 1523.27C410.155 1467.84 433.438 1382.6 415.618 1332.9Z" stroke="#171717" stroke-width="1.8772" stroke-miterlimit="10"/>
<path d="M749.848 1844.29C749.848 1844.29 850.417 1862.04 919.842 1787.08C989.264 1712.11 967.133 1574.87 994.065 1526.32C1021 1477.76 1085.01 1510.56 1121.88 1551.67C1158.75 1592.77 1256.06 1696.27 1329.78 1688.11C1403.5 1679.96 1398 1551.88 1411.34 1509.63C1424.67 1467.37 1451.61 1469.22 1507.56 1488.06C1563.5 1506.9 1622.05 1531.59 1645.04 1517.37C1668.03 1503.15 1748.58 1403.66 1538.23 1349.59C1327.87 1295.52 1220.49 1305.44 1107.05 1252.89C993.601 1200.33 860.734 1123.15 812.67 1205.65C764.604 1288.16 730.388 1333.8 720.664 1435.96C710.939 1538.13 735.281 1655.82 721.081 1691.13C706.875 1726.43 711.367 1842.77 749.848 1844.29Z" stroke="#171717" stroke-width="4.0545" stroke-miterlimit="10"/>
<path d="M86.7337 1592.32C86.7337 1592.32 92.6996 1504.45 149.281 1468.47C205.862 1432.5 292.996 1415.13 311.272 1373.19C329.545 1331.25 291.564 1205.69 242.133 1153.48C192.702 1101.28 171.668 1092.53 161.021 1148.23C150.373 1203.93 143.307 1292.09 99.8414 1335.27C56.3761 1378.45 -6.35182 1427.98 -37.271 1424.08C-68.1901 1420.18 -109.32 1397.68 -134.729 1408.28C-160.139 1418.88 -120.921 1455.15 -114.341 1486.64C-107.761 1518.12 -114.969 1545.23 -86.149 1577.57C-57.3287 1609.9 -7.23307 1634.04 29.2016 1631.2C65.6363 1628.35 82.1356 1620.8 86.7337 1592.32Z" stroke="#171717" stroke-width="1.643" stroke-miterlimit="10"/>
</g>
</g>
<defs>
<clipPath id="clip0_1546_5603">
<rect width="1170" height="1390" fill="white" transform="translate(0 1170) rotate(-90)"/>
</clipPath>
</defs>
</svg>
