<svg width="114" height="26" viewBox="0 0 114 26" fill="none" xmlns="http://www.w3.org/2000/svg">
<path d="M105.44 15.2797C105.251 15.9677 105.049 16.5554 104.832 17.0427C104.615 17.5244 104.326 17.9372 103.967 18.2812L103.941 18.4016H109.602L111.52 9.5005H107.075L105.44 15.2797ZM102.194 20.156L101.672 22.607H99.916L100.79 18.4016H101.68C102.017 18.2238 102.302 17.9888 102.537 17.6964C102.776 17.3982 102.985 17.0399 103.162 16.6213C103.344 16.2028 103.51 15.7212 103.658 15.1765L105.705 7.74609H113.823L111.546 18.4016H113.087L112.213 22.607H110.458L110.98 20.156H102.194Z" fill="white"/>
<path d="M99.2558 20.156H97.2947L98.4679 14.7035H92.1822L91.0089 20.156H89.0479L91.6769 7.74609H93.638L92.5247 12.9577H98.8105L99.9238 7.74609H101.885L99.2558 20.156Z" fill="white"/>
<path d="M84.7411 20.156L86.7021 11.0657H86.5566L78.3611 20.156H76.46L79.089 7.74609H81.0073L79.0376 16.8621H79.1832L87.3872 7.74609H89.2884L86.6593 20.156H84.7411Z" fill="white"/>
<path d="M70.6104 9.32044C69.9482 9.32044 69.3401 9.46664 68.7864 9.75904C68.2326 10.0457 67.753 10.4442 67.3477 10.9544C66.948 11.4647 66.6369 12.0553 66.4142 12.7261C66.1916 13.3969 66.0802 14.1164 66.0802 14.8847C66.0802 15.6357 66.2144 16.2893 66.4827 16.8455C66.7568 17.4016 67.1393 17.8316 67.6303 18.1355C68.1212 18.4336 68.7007 18.5827 69.3687 18.5827C70.031 18.5827 70.639 18.4394 71.1928 18.1527C71.7465 17.8603 72.2233 17.459 72.6229 16.9487C73.0282 16.4384 73.3422 15.8479 73.5649 15.1771C73.7876 14.5005 73.8989 13.7781 73.8989 13.0099C73.8989 12.2588 73.7619 11.6081 73.4878 11.0576C73.2195 10.5015 72.8398 10.0744 72.3489 9.77624C71.8579 9.47237 71.2784 9.32044 70.6104 9.32044ZM69.3516 20.3543C68.2897 20.3543 67.3676 20.1307 66.5855 19.6835C65.8033 19.2306 65.1953 18.5999 64.7614 17.7915C64.3332 16.9831 64.1191 16.0457 64.1191 14.9793C64.1191 13.9358 64.279 12.964 64.5987 12.0639C64.9241 11.1637 65.3809 10.3754 65.9689 9.69884C66.5569 9.01657 67.2449 8.4891 68.0328 8.11643C68.8263 7.73803 69.6913 7.54883 70.6276 7.54883C71.6895 7.54883 72.6115 7.7753 73.3936 8.22823C74.1815 8.67543 74.7895 9.30324 75.2177 10.1116C75.6459 10.92 75.86 11.8575 75.86 12.9239C75.86 13.9673 75.6973 14.9391 75.3718 15.8393C75.0464 16.7394 74.5897 17.5306 74.0017 18.2129C73.4193 18.8894 72.7314 19.4169 71.9378 19.7953C71.1499 20.168 70.2879 20.3543 69.3516 20.3543Z" fill="white"/>
<path d="M57.4052 20.156H52.4297L55.0587 7.74609H62.7147L62.3636 9.5005H56.6602L55.9836 12.5535H58.2616C59.0666 12.5535 59.7716 12.6883 60.3768 12.9577C60.982 13.2215 61.453 13.5999 61.7898 14.0929C62.1324 14.586 62.3036 15.1765 62.3036 15.8645C62.3036 16.4321 62.1866 16.9739 61.9525 17.49C61.7185 18.006 61.3845 18.4646 60.9506 18.866C60.5224 19.2673 60.0086 19.5826 59.4091 19.812C58.8096 20.0413 58.1417 20.156 57.4052 20.156ZM54.7162 18.4618H57.2767C57.8591 18.4618 58.3786 18.3586 58.8353 18.1522C59.2978 17.94 59.6632 17.6562 59.9315 17.3007C60.1998 16.9395 60.334 16.5411 60.334 16.1053C60.334 15.4689 60.1085 14.9959 59.6575 14.6863C59.2064 14.3767 58.6184 14.2219 57.8933 14.2219H55.6411L54.7162 18.4618Z" fill="white"/>
<path d="M9.20248 25.9994H2.60342C-1.99156 21.8594 0.525907 18.8529 2.35901 17.8672C2.06572 19.5429 6.79912 23.9869 9.20248 25.9994Z" fill="white"/>
<path d="M19.2009 25.9884C18.8105 25.9042 13.4163 25.959 10.669 25.9986C10.3023 25.6289 8.68921 23.9039 5.16971 19.961C1.65021 16.0181 5.41416 11.5823 7.73606 9.85727C7.05172 13.8002 9.65061 17.2502 11.0356 18.4824C13.6629 20.9338 18.8195 25.7221 19.2009 25.9884C19.2157 25.9916 19.2233 25.995 19.2233 25.9986C19.2233 26.0023 19.2157 25.9987 19.2009 25.9884Z" fill="white"/>
<path d="M29.9773 25.9986H20.9342L16.046 21.5628L11.4022 16.8806C3.97215 8.1076 14.2129 1.60181 22.034 0C19.6877 1.97145 17.3902 4.43577 16.5348 5.4215C15.3942 6.77687 14.1885 10.4733 18.4901 14.4163C22.7917 18.3592 27.9406 23.7807 29.9773 25.9986Z" fill="white"/>
<path d="M26.2749 20.0839L20.5312 14.416H36.7845C34.1449 18.6546 28.6782 19.9607 26.2749 20.0839Z" fill="white"/>
<path d="M19.4677 12.8144C16.6326 9.95584 16.9829 7.84474 17.5124 7.14652H48.7969C45.2774 10.6951 39.6723 12.4037 37.3096 12.8144H19.4677Z" fill="white"/>
<path d="M18.0013 5.66793C20.4081 3.0804 22.4856 0.739295 25.0891 0H56.3735C51.5831 4.53434 46.9638 5.66793 45.2529 5.66793H18.0013Z" fill="white"/>
</svg>
